Coordinates
version=1
nRows=19
nColumns=36
inDegrees=yes

Units are S.I. units (second, meters, Newtons, ...)
If the header above contains a line with 'inDegrees', this indicates whether rotational values are in degrees (yes) or radians (no).

endheader
time	pelvis_tilt	pelvis_list	pelvis_rotation	pelvis_tx	pelvis_ty	pelvis_tz	hip_flexion_r	hip_adduction_r	hip_rotation_r	knee_angle_r	knee_angle_r_beta	ankle_angle_r	subtalar_angle_r	mtp_angle_r	hip_flexion_l	hip_adduction_l	hip_rotation_l	knee_angle_l	knee_angle_l_beta	ankle_angle_l	subtalar_angle_l	mtp_angle_l	lumbar_extension	lumbar_bending	lumbar_rotation	arm_flex_r	arm_add_r	arm_rot_r	elbow_flex_r	pro_sup_r	arm_flex_l	arm_add_l	arm_rot_l	elbow_flex_l	pro_sup_l
      0.33000000	     -0.77681907	     -3.00816606	      5.74589700	      0.32601849	      0.96593785	     -0.16142231	     -3.06842140	     10.74052951	     -0.00979419	      2.13096476	      0.03719235	      6.02225307	    -16.44719380	     -6.48666383	     29.79455264	     -6.75124978	     -4.81684567	     50.56054855	      0.88244804	      1.10658764	    -11.62168651	     -6.48666383	     -4.50167548	     -1.02996627	      5.62877529	     10.03300968	     -3.48186500	    -15.37817819	     36.56918459	    104.29424626	     -2.89165787	     -2.19342598	    -21.26739975	     21.52490819	     98.87863135
      0.34000000	     -1.04994316	     -2.97812861	      5.41655429	      0.33786356	      0.96507250	     -0.16189258	     -3.94080131	     10.69479363	      0.18929965	      1.51516724	      0.02644466	      6.34872399	    -16.04112129	     -6.49682295	     30.44150553	     -6.59583260	     -5.58978150	     47.21162913	      0.82399837	      1.06865771	    -11.28333810	     -6.49682295	     -4.12045795	     -0.97434161	      6.11183215	     10.64449510	     -3.55402741	    -15.22613526	     37.44703501	    104.36399135	     -4.09884047	     -2.17348792	    -21.77839301	     20.74062702	     98.64923539
      0.35000000	     -1.22873175	     -2.88703069	      5.02368250	      0.34974490	      0.96413222	     -0.16236558	     -4.85835235	     10.56785096	      0.46737457	      1.06824239	      0.01864435	      6.85704970	    -15.50948986	     -6.50806734	     30.76849665	     -6.40824830	     -6.52893918	     43.48631881	      0.75897944	      0.88039117	    -10.90293753	     -6.50806734	     -3.88573794	     -0.99077985	      6.71723001	     11.18520386	     -3.73150541	    -15.02131422	     38.37851799	    104.45347767	     -5.19065873	     -2.16971008	    -22.40940029	     19.97092813	     98.39243173
      0.36000000	     -1.15890034	     -2.75866732	      4.61375184	      0.36163705	      0.96332855	     -0.16286635	     -5.97193428	     10.39244830	      0.39863613	      0.79829798	      0.01393293	      8.17652687	    -14.10002760	     -6.53942579	     30.63063927	     -6.22093079	     -7.71403731	     39.41774253	      0.68796939	      0.31614474	    -10.77123894	     -6.53942579	     -3.99415849	     -1.02769016	      7.53022602	     11.65980270	     -3.95938296	    -14.77739482	     39.49008871	    104.73686573	     -6.04811572	     -1.99045725	    -23.78899923	     19.41144335	     97.93502290
      0.37000000	     -1.41283337	     -2.74904588	      4.31944575	      0.37368513	      0.96171966	     -0.16366179	     -6.62310237	     10.29564349	     -0.36796491	      0.68729961	      0.01199564	      9.71466193	    -11.82728716	     -6.61608324	     30.81183827	     -5.98413515	     -8.65745482	     35.23349949	      0.61494057	      0.00954676	    -10.43620610	     -6.61608324	     -3.65368956	     -0.94610118	      7.91074950	     12.19843073	     -4.06116884	    -14.58532861	     40.31881465	    105.30648982	     -7.41867740	     -1.66634728	    -26.17276517	     19.74019551	     97.35122800
      0.38000000	     -1.88412399	     -2.84163400	      4.01223667	      0.38561146	      0.95954385	     -0.16442893	     -7.03239326	     10.31427462	     -0.24242436	      0.57219830	      0.00998674	     10.07728714	    -11.59718482	     -6.62743151	     31.15939129	     -5.81375699	     -9.59896081	     30.93399485	      0.53990006	      0.06177445	     -9.70110662	     -6.62743151	     -3.02452209	     -0.73491793	      8.33058343	     12.65080919	     -4.18433862	    -14.35449302	     41.15589607	    105.27674782	     -8.70431162	     -1.61833681	    -26.59224893	     19.34487906	     97.15952178
      0.39000000	     -1.93999181	     -2.83265775	      3.69397360	      0.39775976	      0.95782603	     -0.16541055	     -7.88053830	     10.19889686	     -0.82405374	      0.51153852	      0.00892803	     11.58711275	     -9.81333376	     -6.69677123	     30.82635334	     -5.59549385	    -10.97997870	     26.35764778	      0.46002774	      0.04482788	     -8.50034159	     -6.69677123	     -2.94331266	     -0.59711787	      8.91055311	     13.06218476	     -4.44452239	    -14.10308809	     42.04915206	    105.69292551	     -9.83169561	     -1.22430679	    -28.90034711	     19.72056606	     96.82208526
      0.40000000	     -2.20240938	     -2.90958575	      3.41083762	      0.40982417	      0.95560383	     -0.16626301	     -8.49998053	     10.19649603	     -0.66838980	      0.46123941	      0.00805015	     12.15378037	     -9.53937452	     -6.71607904	     30.66790180	     -5.36571013	    -12.25859690	     21.71596671	      0.37901512	      0.06269047	     -7.31941622	     -6.71607904	     -2.61183216	     -0.41889650	      9.33846770	     13.43603230	     -4.55520436	    -13.80223840	     42.96594951	    105.77173050	    -10.97011427	     -1.16389897	    -29.56411491	     19.49799432	     96.68010065
      0.41000000	     -2.71764789	     -3.10396456	      3.20138529	      0.42195521	      0.95282329	     -0.16745253	     -8.80671937	     10.28679192	     -0.57468601	      0.44292294	      0.00773046	     12.52581474	     -9.28439358	     -6.72473901	     30.78302790	     -5.10073560	    -13.12563164	     17.21444794	      0.30044880	      0.33610760	     -6.14635930	     -6.72473901	     -1.92958286	     -0.07172097	      9.59130843	     13.75177401	     -4.65019355	    -13.63330902	     43.78268350	    105.79608427	    -12.20877153	     -1.05695848	    -29.98410669	     19.20991421	     96.54558705
      0.42000000	     -3.04251764	     -3.42301026	      3.01330095	      0.43408523	      0.95011784	     -0.16874314	     -9.30761543	     10.51594491	     -0.55221702	      0.42951351	      0.00749642	     12.97007757	     -9.13201055	     -6.73139101	     30.74342997	     -4.98875794	    -14.11190687	     13.04706721	      0.22771428	      0.60634251	     -4.92955966	     -6.73139101	     -1.48730051	      0.48706074	      9.83110736	     14.07979333	     -4.77059188	    -13.48952354	     44.58440193	    105.83120776	    -13.32570863	     -0.87792201	    -30.37324795	     18.93186605	     96.41468020
      0.43000000	     -3.29357779	     -3.55807630	      2.82038609	      0.44632028	      0.94754203	     -0.17009110	     -9.89057965	     10.52642988	     -0.38723867	      0.44321649	      0.00773559	     13.46280657	     -8.92414997	     -6.73820327	     30.46605621	     -4.66255253	    -14.85833240	      8.97715277	      0.15668087	      0.83834537	     -3.25320774	     -6.73820327	     -1.16622577	      0.77377598	     10.13441755	     14.33174745	     -4.90102275	    -13.30983017	     45.42435943	    105.89115482	    -14.32684126	     -0.77264443	    -30.82567686	     18.68697754	     96.26716061
      0.44000000	     -2.95207453	     -3.45548982	      2.58755033	      0.45879197	      0.94587554	     -0.17136809	    -11.16027588	     10.27245493	     -0.36661168	      0.45484233	      0.00793850	     14.38327203	     -8.06205217	     -6.76779426	     29.57233195	     -4.33266399	    -16.78699514	      5.57812270	      0.09735661	      1.76020491	      0.76081476	     -6.76779426	     -1.67830841	      0.74276796	     10.62490610	     14.54974681	     -5.07218437	    -13.21215872	     46.56472826	    106.21077168	    -14.98982804	     -0.54356788	    -32.50562430	     18.94822698	     95.87615546
      0.45000000	     -3.24751431	     -3.71423911	      2.41099247	      0.47099985	      0.94309176	     -0.17273450	    -11.64486138	     10.39783016	     -0.01407992	      0.52133169	      0.00909895	     14.64948130	     -8.02651238	     -6.77683742	     29.65180004	     -4.24701564	    -16.75374818	      3.12880685	      0.05460798	      2.34862201	      2.22600113	     -6.77683742	     -1.32138981	      1.18023849	     10.79702635	     14.81852276	     -5.14790596	    -13.06596686	     47.18656832	    106.30478994	    -15.86624737	     -0.38963667	    -33.00651410	     18.75466807	     95.73744096
      0.46000000	     -3.24636177	     -3.86114556	      2.13761818	      0.48333204	      0.94084078	     -0.17387052	    -12.45276432	     10.39730685	      0.60295504	      0.60847362	      0.01061987	     14.70220955	     -8.44806555	     -6.82077714	     29.68448239	     -4.38446534	    -18.08823515	      2.00127626	      0.03492886	      3.97764709	      5.73845341	     -6.82077714	     -1.38836127	      1.42697653	     11.06841797	     15.07027314	     -5.19591352	    -12.89750179	     47.91571450	    106.69780878	    -16.56346298	     -0.07451430	    -34.94888758	     19.10531121	     95.34082086
      0.47000000	     -3.29549655	     -4.00106418	      1.88586699	      0.49567420	      0.93856000	     -0.17501979	    -13.15129106	     10.37735201	      1.22649222	      0.79044969	      0.01379595	     14.72087368	     -8.87157465	     -6.84741048	     29.77721007	     -4.49041826	    -17.77664247	      1.53693004	      0.02682449	      4.90925175	      6.66936441	     -6.84741048	     -1.39906136	      1.67070830	     11.26792353	     15.27381699	     -5.24828211	    -12.64814010	     48.59378639	    106.87401413	    -17.15371318	      0.06815585	    -35.86402336	     18.95737277	     95.18413009
      0.48000000	     -3.31900323	     -4.06148916	      1.58776520	      0.50823252	      0.93649606	     -0.17605023	    -13.79958868	     10.25282413	      1.69688702	      1.13447905	      0.01980039	     14.79323106	     -8.92380330	     -6.85443161	     29.77335317	     -4.58999498	    -16.92653299	      1.60514403	      0.02801505	      5.39306066	      7.05106972	     -6.85443161	     -1.39836715	      1.81290455	     11.47304114	     15.47586737	     -5.15362213	    -12.51424984	     49.06234555	    106.86447134	    -17.68696303	      0.09850190	    -36.17018679	     18.68363062	     95.08260822
      0.49000000	     -3.26315353	     -4.03616357	      1.23564094	      0.52095682	      0.93470534	     -0.17703642	    -14.43490522	     10.01409785	      2.09023925	      1.68686072	      0.02944127	     14.85107335	     -9.18152604	     -6.86431199	     29.68043964	     -4.67413134	    -15.86143394	      2.27700144	      0.03974117	      5.97858108	      7.08676604	     -6.86431199	     -1.51793958	      1.83975543	     11.77818353	     15.52741448	     -5.10960497	    -12.33062325	     49.60162055	    106.86611356	    -18.04344923	      0.09221535	    -36.64645745	     18.33615918	     94.94380513
      0.50000000	     -3.23364845	     -3.92384706	      0.87933935	      0.53382896	      0.93304748	     -0.17804096	    -14.89740370	      9.67078885	      2.26953500	      2.52277913	      0.04403080	     14.82918061	     -9.40017725	     -6.87440769	     29.64916168	     -4.68786549	    -14.73163580	      3.42560544	      0.05978809	      6.16652308	      6.76861812	     -6.87440769	     -1.58639415	      1.74492125	     12.04452457	     15.52561261	     -4.98574356	    -12.20617570	     50.05991603	    106.85096696	    -18.34297570	      0.04970134	    -37.11897020	     18.02051497	     94.80628016
      0.51000000	     -3.19481940	     -3.71051385	      0.53451372	      0.54691971	      0.93161364	     -0.17913055	    -15.25405822	      9.20342878	      2.23234357	      3.58816532	      0.06262530	     14.73554624	     -9.56288685	     -6.88237629	     29.56887394	     -4.57049826	    -13.63190350	      4.75845417	      0.08305069	      5.94756523	      6.22393272	     -6.88237629	     -1.63805524	      1.51776129	     12.25811558	     15.44602220	     -4.80319053	    -12.12979177	     50.40133682	    106.91657803	    -18.58290606	     -0.03493380	    -37.51318321	     17.73369170	     94.73337927
